<?xml version="1.0" encoding="utf-8"?>
<!-- Generator: Adobe Illustrator 18.0.0, SVG Export Plug-In . SVG Version: 6.00 Build 0)  -->
<!DOCTYPE svg PUBLIC "-//W3C//DTD SVG 1.1//EN" "http://www.w3.org/Graphics/SVG/1.1/DTD/svg11.dtd">
<svg version="1.1" id="Layer_1" xmlns="http://www.w3.org/2000/svg" xmlns:xlink="http://www.w3.org/1999/xlink" x="0px" y="0px"
	 viewBox="-29 -119 850 850" enable-background="new -29 -119 850 850" xml:space="preserve">
<path id="XMLID_1_" fill="#414042" d="M509.5,518c117.2,0,207.8-79.3,237.5-179.5h-89.9c-25,41.2-55.2,95.9-149.1,95.9
	c-98,0-146.3-95.2-154.4-156.5c-8.4-55.5-7.7-70.9-22.9-110.7c-15.2-39.5-55.5-73.5-117.2-73.5c-38.8,0-66.2,14.3-92.7,41.7v-30H45
	v340.9h81.7V284.3c0-22.5-0.7-51.7,8.2-73c10.3-24.6,34.9-49.6,62.2-49.6c50.5,0,66.9,50.5,70.2,92.4c1.9,18.7,4.7,35.8,7.7,51.5
	c0,0,14.5,88.5,65.5,139.2S445.8,518,509.5,518"/>
</svg>
