<?xml version="1.0" encoding="utf-8"?>
<!-- Generator: Adobe Illustrator 22.1.0, SVG Export Plug-In . SVG Version: 6.00 Build 0)  -->
<svg version="1.1" id="Layer_1" xmlns="http://www.w3.org/2000/svg" xmlns:xlink="http://www.w3.org/1999/xlink" x="0px" y="0px"
	 viewBox="0 0 300 300" style="enable-background:new 0 0 300 300;" xml:space="preserve">
<style type="text/css">
	.st0{fill:#414042;}
</style>
<path id="XMLID_1_" class="st0" d="M198.5,240.6c50.1,0,88.8-33.9,101.5-76.7h-38.4c-10.7,17.6-23.6,41-63.7,41
	c-41.9,0-62.5-40.7-66-66.9c-3.6-23.7-3.3-30.3-9.8-47.3c-6.5-16.9-23.7-31.4-50.1-31.4c-16.6,0-28.3,6.1-39.6,17.8V64.3H0V210h34.9
	v-69.3c0-9.6-0.3-22.1,3.5-31.2C42.8,99,53.3,88.3,65,88.3c21.6,0,28.6,21.6,30,39.5c0.8,8,2,15.3,3.3,22c0,0,6.2,37.8,28,59.5
	S171.3,240.6,198.5,240.6"/>
</svg>
